<?xml version="1.0" encoding="UTF-8"?>
<svg width="217px" height="251px" viewBox="0 0 217 251" version="1.1" xmlns="http://www.w3.org/2000/svg" xmlns:xlink="http://www.w3.org/1999/xlink">
    <!-- Generator: Sketch 59 (86127) - https://sketch.com -->
    <title>Group</title>
    <desc>Created with Sketch.</desc>
    <g id="Page-1" stroke="none" stroke-width="1" fill="none" fill-rule="evenodd">
        <g id="Artboard" transform="translate(-20.000000, -17.000000)">
            <g id="Group" transform="translate(20.000000, 17.000000)">
                <g id="Group-4" transform="translate(136.500000, 184.000000) scale(-1, 1) translate(-136.500000, -184.000000) translate(65.000000, 140.000000)">
                    <polygon id="Triangle" fill="#E1E1E1" transform="translate(136.500000, 80.500000) rotate(90.000000) translate(-136.500000, -80.500000) " points="136.5 74 144 87 129 87"></polygon>
                    <path d="M18,7 L22.5301205,7 L58.1644663,7 C66.4487375,7 73.1644663,13.7157288 73.1644663,22 L73.1644663,65 C73.1644663,73.2842712 79.880195,80 88.1644663,80 L130,80 L130,80" id="Path-3" stroke="#E1E1E1" stroke-width="2" stroke-dasharray="5"></path>
                    <circle id="Oval-2" stroke="#E1E1E1" stroke-width="2" cx="7.5" cy="7.5" r="6.5"></circle>
                </g>
                <g id="Group-4" transform="translate(145.500000, 61.000000) scale(-1, -1) translate(-145.500000, -61.000000) translate(74.000000, 25.000000)">
                    <polygon id="Triangle" fill="#E1E1E1" transform="translate(136.500000, 64.500000) rotate(90.000000) translate(-136.500000, -64.500000) " points="136.5 58 144 71 129 71"></polygon>
                    <path d="M18,7 L22.5301205,7 L58.1644663,7 C66.4487375,7 73.1644663,13.7157288 73.1644663,22 L73.1644663,49 C73.1644663,57.2842712 79.880195,64 88.1644663,64 L130,64 L130,64" id="Path-3" stroke="#E1E1E1" stroke-width="2" stroke-dasharray="5"></path>
                    <circle id="Oval-2" stroke="#E1E1E1" stroke-width="2" cx="7.5" cy="7.5" r="6.5"></circle>
                </g>
                <g id="Group-2" transform="translate(141.500000, 118.500000) scale(-1, 1) translate(-141.500000, -118.500000) translate(86.000000, 111.000000)">
                    <line x1="0" y1="7" x2="93" y2="7" id="Line" stroke="#E1E1E1" stroke-width="2" stroke-linecap="square" stroke-dasharray="5"></line>
                    <polygon id="Triangle" fill="#E1E1E1" transform="translate(104.500000, 7.500000) rotate(90.000000) translate(-104.500000, -7.500000) " points="104.5 1 112 14 97 14"></polygon>
                </g>
                <g id="TG" transform="translate(0.000000, 191.000000)">
                    <circle id="Oval" fill="#0088CC" cx="30" cy="30" r="30"></circle>
                    <g id="ei-sc-telegram" transform="translate(3.157895, 4.210526)" fill-rule="nonzero">
                        <g id="Icon" transform="translate(9.210526, 13.157895)" fill="#FFFFFF">
                            <path d="M29.8421053,0.526315789 L0.684210526,12.1052632 C-0.263157895,12.4210526 -0.157894737,13.7894737 0.789473684,14.1052632 L8.15789474,16.4210526 L11.1052632,25.6842105 C11.3157895,26.4210526 12.2631579,26.6315789 12.7894737,26.1052632 L17.1052632,22.1052632 L25.3157895,28.1052632 C25.9473684,28.5263158 26.7894737,28.2105263 27,27.4736842 L32.6842105,3.05263158 C33,1.26315789 31.4210526,-0.105263158 29.8421053,0.526315789 L29.8421053,0.526315789 Z M12.7894737,18.2105263 L11.8421053,23.6842105 L9.73684211,16.1052632 L30.2631579,2.63157895 L12.7894737,18.2105263 Z" id="Icon-Shape"></path>
                        </g>
                        <rect id="ViewBox" x="0" y="0" width="52.6315789" height="52.6315789"></rect>
                    </g>
                </g>
                <g id="INST" transform="translate(31.000000, 94.000000)">
                    <circle id="Oval" fill="#E1306C" cx="25" cy="25" r="25"></circle>
                    <g id="ant-design:instagram-outline" transform="translate(4.000000, 4.000000)" fill-rule="nonzero">
                        <g id="Icon" transform="translate(4.166667, 5.000000)" fill="#FFFFFF">
                            <path d="M16.25,7.98791504 C11.6778564,7.98791504 7.98791504,11.6778564 7.98791504,16.25 C7.98791504,20.8221436 11.6778564,24.512085 16.25,24.512085 C20.8221436,24.512085 24.512085,20.8221436 24.512085,16.25 C24.512085,11.6778564 20.8221436,7.98791504 16.25,7.98791504 Z M16.25,21.619751 C13.2932129,21.619751 10.880249,19.2067871 10.880249,16.25 C10.880249,13.2932129 13.2932129,10.880249 16.25,10.880249 C19.2067871,10.880249 21.619751,13.2932129 21.619751,16.25 C21.619751,19.2067871 19.2067871,21.619751 16.25,21.619751 Z M24.8504639,5.7239975 C23.782959,5.7239975 22.9208984,6.58605957 22.9208984,7.65356445 C22.9208984,8.72106934 23.782959,9.58312988 24.8504639,9.58312988 C25.9179688,9.58312988 26.7800308,8.72509766 26.7800308,7.65356445 C26.7806718,7.14161519 26.5775852,6.65044929 26.2155821,6.28844621 C25.853579,5.92644314 25.3624131,5.72335654 24.8504639,5.7239975 Z M32.3552246,16.25 C32.3552246,14.0263672 32.3753662,11.822876 32.2504883,9.60327148 C32.1256104,7.02514648 31.5374756,4.73706055 29.6522217,2.85180664 C27.7629395,0.962524414 25.4788818,0.378417969 22.9007568,0.253540039 C20.677124,0.128662109 18.4736328,0.148803711 16.2540283,0.148803711 C14.0303955,0.148803711 11.8269043,0.128662109 9.6072998,0.253540039 C7.0291748,0.378417969 4.74108887,0.966552734 2.85583496,2.85180664 C0.966552734,4.74108887 0.382446289,7.02514648 0.257568359,9.60327148 C0.13269043,11.8269043 0.152832031,14.0303955 0.152832031,16.25 C0.152832031,18.4696045 0.13269043,20.677124 0.257568359,22.8967285 C0.382446289,25.4748535 0.970581055,27.7629395 2.85583496,29.6481934 C4.74511719,31.5374756 7.0291748,32.121582 9.6072998,32.24646 C11.8309326,32.3713379 14.0344238,32.3511963 16.2540283,32.3511963 C18.4776611,32.3511963 20.6811523,32.3713379 22.9007568,32.24646 C25.4788818,32.121582 27.7669678,31.5334473 29.6522217,29.6481934 C31.5415039,27.7589111 32.1256104,25.4748535 32.2504883,22.8967285 C32.3793945,20.677124 32.3552246,18.4736328 32.3552246,16.25 Z M28.8103027,25.7487793 C28.5162354,26.4819336 28.1617432,27.0297852 27.59375,27.59375 C27.0257568,28.1617432 26.4819336,28.5162354 25.7487793,28.8103027 C23.6298828,29.6522217 18.5985107,29.4628906 16.25,29.4628906 C13.9014893,29.4628906 8.86608887,29.6522217 6.74719238,28.8143311 C6.01403809,28.5202637 5.46618652,28.1657715 4.90222168,27.5977783 C4.33422852,27.0297852 3.97973633,26.4859619 3.68566895,25.7528076 C2.84777832,23.6298828 3.03710937,18.5985107 3.03710937,16.25 C3.03710937,13.9014893 2.84777832,8.86608887 3.68566895,6.74719238 C3.97973633,6.01403809 4.33422852,5.46618652 4.90222168,4.90222168 C5.47021484,4.33825684 6.01403809,3.97973633 6.74719238,3.68566895 C8.86608887,2.84777832 13.9014893,3.03710938 16.25,3.03710938 C18.5985107,3.03710938 23.6339111,2.84777832 25.7528076,3.68566895 C26.4859619,3.97973633 27.0338135,4.33422852 27.5977783,4.90222168 C28.1657715,5.47021484 28.5202637,6.01403809 28.8143311,6.74719238 C29.6522217,8.86608887 29.4628906,13.9014893 29.4628906,16.25 C29.4628906,18.5985107 29.6522217,23.6298828 28.8103027,25.7487793 Z" id="Icon-Shape"></path>
                        </g>
                        <rect id="ViewBox" x="0" y="0" width="41.6666667" height="41.6666667"></rect>
                    </g>
                </g>
                <g id="FB" transform="translate(4.000000, 0.000000)">
                    <circle id="Oval" fill="#3B5998" cx="32.5" cy="32.5" r="32.5"></circle>
                    <g id="brandico-facebook" transform="translate(21.000000, 9.000000)" fill-rule="nonzero">
                        <g id="Icon" fill="#FFFFFF">
                            <path d="M5.8597577,48 L5.8597577,25.477008 L0,25.477008 L0,17.367648 L5.8597577,17.367648 L5.8597577,10.4412 C5.8597577,4.998336 9.32113963,0 17.2968973,0 C20.526154,0 22.9140452,0.31464 22.9140452,0.31464 L22.7258891,7.887408 C22.7258891,7.887408 20.2906283,7.863312 17.6331602,7.863312 C14.7569795,7.863312 14.2961766,9.210432 14.2961766,11.44632 L14.2961766,17.367648 L22.9545195,17.367648 L22.5777823,25.477008 L14.2961766,25.477008 L14.2961766,48 L5.8597577,48" id="Icon-Path"></path>
                        </g>
                        <rect id="ViewBox" x="0" y="0" width="23" height="48"></rect>
                    </g>
                </g>
            </g>
        </g>
    </g>
</svg>