<?xml version="1.0" encoding="UTF-8"?>
<svg width="238px" height="250px" viewBox="0 0 238 250" version="1.1" xmlns="http://www.w3.org/2000/svg" xmlns:xlink="http://www.w3.org/1999/xlink">
    <!-- Generator: Sketch 59 (86127) - https://sketch.com -->
    <title>Group 3</title>
    <desc>Created with Sketch.</desc>
    <defs>
        <filter x="-10.8%" y="-10.8%" width="121.7%" height="121.7%" filterUnits="objectBoundingBox" id="filter-1">
            <feOffset dx="2" dy="2" in="SourceAlpha" result="shadowOffsetOuter1"></feOffset>
            <feGaussianBlur stdDeviation="0.5" in="shadowOffsetOuter1" result="shadowBlurOuter1"></feGaussianBlur>
            <feColorMatrix values="0 0 0 0 0   0 0 0 0 0   0 0 0 0 0  0 0 0 0.5 0" type="matrix" in="shadowBlurOuter1" result="shadowMatrixOuter1"></feColorMatrix>
            <feMerge>
                <feMergeNode in="shadowMatrixOuter1"></feMergeNode>
                <feMergeNode in="SourceGraphic"></feMergeNode>
            </feMerge>
        </filter>
        <filter x="-10.8%" y="-10.8%" width="121.7%" height="121.7%" filterUnits="objectBoundingBox" id="filter-2">
            <feOffset dx="2" dy="2" in="SourceAlpha" result="shadowOffsetOuter1"></feOffset>
            <feGaussianBlur stdDeviation="0.5" in="shadowOffsetOuter1" result="shadowBlurOuter1"></feGaussianBlur>
            <feColorMatrix values="0 0 0 0 0   0 0 0 0 0   0 0 0 0 0  0 0 0 0.5 0" type="matrix" in="shadowBlurOuter1" result="shadowMatrixOuter1"></feColorMatrix>
            <feMerge>
                <feMergeNode in="shadowMatrixOuter1"></feMergeNode>
                <feMergeNode in="SourceGraphic"></feMergeNode>
            </feMerge>
        </filter>
        <filter x="-10.8%" y="-10.8%" width="121.7%" height="121.7%" filterUnits="objectBoundingBox" id="filter-3">
            <feOffset dx="2" dy="2" in="SourceAlpha" result="shadowOffsetOuter1"></feOffset>
            <feGaussianBlur stdDeviation="0.5" in="shadowOffsetOuter1" result="shadowBlurOuter1"></feGaussianBlur>
            <feColorMatrix values="0 0 0 0 0   0 0 0 0 0   0 0 0 0 0  0 0 0 0.5 0" type="matrix" in="shadowBlurOuter1" result="shadowMatrixOuter1"></feColorMatrix>
            <feMerge>
                <feMergeNode in="shadowMatrixOuter1"></feMergeNode>
                <feMergeNode in="SourceGraphic"></feMergeNode>
            </feMerge>
        </filter>
    </defs>
    <g id="Page-1" stroke="none" stroke-width="1" fill="none" fill-rule="evenodd">
        <g id="Artboard" transform="translate(-346.000000, -17.000000)">
            <g id="Group-3" transform="translate(346.000000, 17.000000)">
                <g id="Group-4" transform="translate(30.000000, 140.000000)">
                    <polygon id="Triangle" fill="#E1E1E1" transform="translate(132.500000, 77.500000) rotate(90.000000) translate(-132.500000, -77.500000) " points="132.5 71 140 84 125 84"></polygon>
                    <path d="M18,7 L22.3683305,7 L56.1943067,7 C64.478578,7 71.1943067,13.7157288 71.1943067,22 L71.1943067,62 C71.1943067,70.2842712 77.9100355,77 86.1943067,77 L126,77 L126,77" id="Path-3" stroke="#E1E1E1" stroke-width="2" stroke-dasharray="5"></path>
                    <circle id="Oval-2" stroke="#E1E1E1" stroke-width="2" cx="7.5" cy="7.5" r="6.5"></circle>
                </g>
                <g id="Group-4" transform="translate(76.500000, 59.000000) scale(1, -1) translate(-76.500000, -59.000000) translate(0.000000, 23.000000)">
                    <polygon id="Triangle" fill="#E1E1E1" transform="translate(146.500000, 64.500000) rotate(90.000000) translate(-146.500000, -64.500000) " points="146.5 58 154 71 139 71"></polygon>
                    <path d="M18,7 L22.9345955,7 L63.089865,7 C71.3741363,7 78.089865,13.7157288 78.089865,22 L78.089865,49 C78.089865,57.2842712 84.8055938,64 93.089865,64 L140,64 L140,64" id="Path-3" stroke="#E1E1E1" stroke-width="2" stroke-dasharray="5"></path>
                    <circle id="Oval-2" stroke="#E1E1E1" stroke-width="2" cx="7.5" cy="7.5" r="6.5"></circle>
                </g>
                <g id="Group-2" transform="translate(43.000000, 110.000000)">
                    <line x1="0" y1="7.5" x2="64" y2="7.5" id="Line" stroke="#E1E1E1" stroke-width="2" stroke-linecap="square" stroke-dasharray="5"></line>
                    <polygon id="Triangle" fill="#E1E1E1" transform="translate(75.500000, 7.500000) rotate(90.000000) translate(-75.500000, -7.500000) " points="75.5 1 83 14 68 14"></polygon>
                </g>
                <g id="VK" filter="url(#filter-1)" transform="translate(175.000000, 187.000000)">
                    <circle id="Oval" fill="#4680C2" cx="30" cy="30" r="30"></circle>
                    <g id="entypo-social:vk" transform="translate(7.200000, 7.200000)">
                        <g id="Icon" transform="translate(0.000000, 9.120000)" fill="#FFFFFF">
                            <path d="M40.58856,18.91944 C40.58856,18.91944 44.27532,22.5606 45.18732,24.24552 C45.2050636,24.2698258 45.2189098,24.296749 45.22836,24.32532 C45.5997482,24.94776 45.6912,25.43568 45.5088,25.79592 C45.201,26.391 44.15904,26.68968 43.80564,26.71476 L37.2894,26.71476 C36.83568,26.71476 35.89176,26.5962 34.74264,25.80276 C33.86484,25.18944 32.9916,24.1794 32.14572,23.19216 C30.8826,21.72612 29.79048,20.45388 28.68468,20.45388 C28.5450186,20.4535826 28.4062957,20.4767031 28.27428,20.52228 C27.43752,20.78676 26.37504,21.9792 26.37504,25.15524 C26.37504,26.14932 25.59072,26.71476 25.04124,26.71476 L22.05672,26.71476 C21.03984,26.71476 15.74568,26.35908 11.05116,21.4092 C5.29872,15.34896 0.13224,3.192 0.08208,3.08484 C-0.2394,2.29824 0.43548,1.8696 1.16508,1.8696 L7.74516,1.8696 C8.62752,1.8696 8.9148,2.40312 9.11544,2.88192 C9.348,3.4314 10.20984,5.62932 11.62344,8.09856 C13.91256,12.11592 15.31932,13.75068 16.44336,13.75068 C16.654539,13.7512995 16.8621514,13.6962508 17.04528,13.59108 C18.5136,12.78396 18.24,7.53996 18.1716,6.45924 C18.1716,6.24948 18.16932,4.11768 17.41692,3.08712 C16.87884,2.3484 15.96228,2.06112 15.40824,1.95624 C15.55644,1.74192 15.87108,1.4136 16.27464,1.2198 C17.28012,0.7182 19.09728,0.64524 20.90076,0.64524 L21.90168,0.64524 C23.85792,0.6726 24.36408,0.798 25.07544,0.97812 C26.50728,1.32012 26.53464,2.24808 26.40924,5.40816 C26.37276,6.31104 26.334,7.32792 26.334,8.52492 C26.334,8.78028 26.3226,9.06528 26.3226,9.35484 C26.27928,10.97592 26.22228,12.8022 27.36684,13.55232 C27.5152888,13.6447958 27.6867034,13.6937714 27.8616,13.69368 C28.25832,13.69368 29.4462,13.69368 32.66784,8.16468 C34.08144,5.7228 35.17584,2.84316 35.25108,2.62656 C35.31492,2.50572 35.50644,2.166 35.739,2.0292 C35.9044355,1.94118116 36.0897363,1.89721148 36.27708,1.90152 L44.01768,1.90152 C44.86128,1.90152 45.43356,2.0292 45.54528,2.3484 C45.73224,2.86596 45.5088,4.446 41.9748,9.22488 C41.37972,10.0206 40.8576,10.70916 40.39932,11.31108 C37.19592,15.5154 37.19592,15.72744 40.58856,18.91944 L40.58856,18.91944 Z" id="Icon-Path"></path>
                        </g>
                        <rect id="ViewBox" fill-rule="nonzero" x="0" y="0" width="45.6" height="45.6"></rect>
                    </g>
                </g>
                <g id="OK" filter="url(#filter-2)" transform="translate(130.000000, 87.000000)">
                    <circle id="Oval" fill="#ED812B" cx="30" cy="30" r="30"></circle>
                    <g id="brandico-odnoklassniki" transform="translate(18.000000, 10.000000)" fill-rule="nonzero">
                        <g id="Icon" fill="#FFFFFF">
                            <path d="M12.0064441,0 C6.12681583,0 1.34379346,4.63084 1.34379346,10.32376 C1.34379346,16.01624 6.12681583,20.645 12.0064441,20.645 C17.8858657,20.645 22.6665336,16.01624 22.6665336,10.32376 C22.6665336,4.63084 17.8859071,0 12.0064441,0 Z M12.0064441,6.04876 C14.4398623,6.04876 16.418685,7.96744 16.418685,10.32376 C16.418685,12.67908 14.4399036,14.59628 12.0064441,14.59628 C9.57253012,14.59628 7.591642,12.67912 7.591642,10.32376 C7.591642,7.96744 9.57253012,6.04876 12.0064441,6.04876 Z M3.21558692,20.99624 C2.16066093,20.98036 1.12329088,21.48388 0.52151463,22.41248 C-0.398127367,23.82716 0.0424234079,25.69392 1.50002065,26.58372 C3.42803442,27.755 5.52016523,28.586 7.68979002,29.06496 L1.73109811,34.83748 C0.511270224,36.01924 0.512302926,37.9332 1.73237866,39.115 C2.34390361,39.7048 3.14148021,40 3.9410809,40 C4.73985542,40 5.54011704,39.70436 6.14978313,39.11376 L12.0039243,33.44252 L17.8632289,39.11376 C19.0820241,40.2952 21.0583683,40.2952 22.2793115,39.11376 C23.4996764,37.93276 23.4996764,36.01676 22.2793115,34.83752 L16.3180172,29.06628 C18.4882616,28.58728 20.5810947,27.75584 22.5077866,26.58376 C23.9682754,25.69396 24.4094871,23.82516 23.4901343,22.41252 C22.5697487,20.99752 20.6427263,20.57128 19.1811635,21.46252 C14.8160551,24.12128 9.19162823,24.11952 4.82788296,21.46252 C4.32557659,21.15616 3.76816523,21.0046 3.21558692,20.99628 L3.21558692,20.99624 Z" id="Icon-Shape"></path>
                        </g>
                        <rect id="ViewBox" x="0" y="0" width="24" height="40"></rect>
                    </g>
                </g>
                <g id="TW" filter="url(#filter-3)" transform="translate(158.000000, 0.000000)">
                    <circle id="Oval" fill="#1DA1F2" cx="30" cy="30" r="30"></circle>
                    <g id="ant-design:twitter-outline" transform="translate(9.000000, 9.000000)" fill-rule="nonzero">
                        <g id="Icon" transform="translate(4.000000, 7.000000)" fill="#FFFFFF">
                            <path d="M35,3.88451705 C33.7277961,4.42826705 32.3433388,4.81960227 30.9173063,4.97201705 C32.3978545,4.10051655 33.5065754,2.72369128 34.0354532,1.09985795 C32.6461448,1.9187337 31.124158,2.49294383 29.5370066,2.79701705 C28.1960776,1.37665967 26.3196535,0.572408388 24.3567251,0.576687421 C20.42786,0.576687421 17.2681378,3.73210227 17.2681378,7.60426136 C17.2681378,8.14801136 17.3346583,8.69176136 17.442754,9.21491477 C11.5598501,8.91008523 6.31304825,6.12542614 2.82488121,1.86193182 C2.18930002,2.93754937 1.85623379,4.16226649 1.86033443,5.40866477 C1.86033443,7.84730114 3.11175073,9.99758523 5.02005665,11.2622159 C3.89546343,11.2183333 2.79720303,10.912066 1.81460161,10.3683239 L1.81460161,10.4548295 C1.81460161,13.8697443 4.25091374,16.6997159 7.49794408,17.3505682 C6.88827846,17.5074746 6.26110833,17.5877453 5.63121345,17.5894886 C5.1697277,17.5894886 4.73318713,17.5441761 4.29248904,17.4823864 C5.19051535,20.2670455 7.80560124,22.2896307 10.9195906,22.3555398 C8.48327851,24.2463068 5.43165205,25.3585227 2.11810124,25.3585227 C1.52357456,25.3585227 0.974780702,25.3379261 0.405199196,25.272017 C3.5482913,27.2698864 7.27759503,28.4232955 11.2937683,28.4232955 C24.33178,28.4232955 31.4661001,17.7213068 31.4661001,8.43224432 C31.4661001,8.12741477 31.4661001,7.82258523 31.4453125,7.51775568 C32.8256122,6.51676136 34.0354532,5.27684659 35,3.88451705 Z" id="Icon-Path"></path>
                        </g>
                        <rect id="ViewBox" x="0" y="0" width="42" height="42"></rect>
                    </g>
                </g>
            </g>
        </g>
    </g>
</svg>