<?xml version="1.0" encoding="UTF-8"?>
<svg width="202px" height="320px" viewBox="0 0 202 320" version="1.1" xmlns="http://www.w3.org/2000/svg" xmlns:xlink="http://www.w3.org/1999/xlink">
    <!-- Generator: Sketch 59 (86127) - https://sketch.com -->
    <title>Group</title>
    <desc>Created with Sketch.</desc>
    <g id="Page-1" stroke="none" stroke-width="1" fill="none" fill-rule="evenodd">
        <g id="Artboard" transform="translate(-321.000000, -50.000000)">
            <g id="Group" transform="translate(321.000000, 50.000000)">
                <rect id="Rectangle" fill="#000000" x="190" y="136" width="12" height="66"></rect>
                <rect id="Rectangle" fill="#000000" x="178" y="202" width="12" height="48"></rect>
                <rect id="Rectangle" fill="#32363B" x="166" y="251" width="12" height="30"></rect>
                <rect id="Rectangle" fill="#000000" x="80" y="168" width="81" height="12"></rect>
                <rect id="Rectangle" fill="#000000" x="146" y="0" width="32" height="12"></rect>
                <rect id="Rectangle" fill="#000000" x="178" y="12" width="12" height="112"></rect>
                <rect id="Rectangle" fill="#000000" x="98" y="62" width="36" height="12"></rect>
                <rect id="Rectangle" fill="#000000" x="134" y="12" width="12" height="112"></rect>
                <rect id="Rectangle" fill="#000000" x="12" y="2" width="26" height="12"></rect>
                <rect id="Rectangle" fill="#000000" x="38" y="15" width="12" height="125"></rect>
                <rect id="Rectangle" fill="#000000" x="54" y="140" width="17" height="12"></rect>
                <rect id="Rectangle" fill="#32363B" x="24" y="251" width="12" height="30"></rect>
                <rect id="Rectangle" fill="#000000" x="12" y="202" width="12" height="48"></rect>
                <rect id="Rectangle" fill="#000000" x="0" y="13" width="12" height="189"></rect>
                <rect id="Rectangle" fill="#000000" x="50" y="62" width="36" height="12"></rect>
                <rect id="Rectangle" fill="#000000" x="86" y="74" width="12" height="50"></rect>
                <rect id="Rectangle" fill="#000000" x="69" y="124" width="121" height="12"></rect>
                <rect id="Rectangle" fill="#000000" x="69" y="136" width="12" height="32"></rect>
                <rect id="Rectangle" fill="#FFFFFF" x="12" y="13" width="26" height="189"></rect>
                <rect id="Rectangle" fill="#FFFFFF" x="24" y="202" width="155" height="48"></rect>
                <rect id="Rectangle" fill="#FFFFFF" x="36" y="251" width="133" height="30"></rect>
                <rect id="Rectangle" fill="#FFFFFF" x="37" y="140" width="17" height="62"></rect>
                <rect id="Rectangle" fill="#FFFFFF" x="54" y="152" width="15" height="50"></rect>
                <rect id="Rectangle" fill="#FFFFFF" x="69" y="167" width="11" height="35"></rect>
                <rect id="Rectangle" fill="#FFFFFF" x="80" y="179" width="110" height="23"></rect>
                <rect id="Rectangle" fill="#FFFFFF" x="161" y="136" width="29" height="44"></rect>
                <rect id="Rectangle" fill="#FFFFFF" x="80" y="136" width="81" height="32"></rect>
                <rect id="Rectangle" fill="#FFFFFF" x="50" y="74" width="36" height="50"></rect>
                <rect id="Rectangle" fill="#FFFFFF" x="98" y="74" width="36" height="50"></rect>
                <rect id="Rectangle" fill="#FFFFFF" x="50" y="124" width="20" height="17"></rect>
                <rect id="Rectangle" fill="#FFFFFF" x="146" y="12" width="32" height="112"></rect>
                <rect id="Rectangle" stroke="#000000" stroke-width="12" fill="#4267B2" x="30" y="257" width="145" height="57"></rect>
            </g>
        </g>
    </g>
</svg>