<?xml version="1.0" encoding="UTF-8"?>
<svg width="22px" height="22px" viewBox="0 0 22 22" version="1.1" xmlns="http://www.w3.org/2000/svg" xmlns:xlink="http://www.w3.org/1999/xlink">
    <!-- Generator: Sketch 59 (86127) - https://sketch.com -->
    <title>ant-design:clock-circle-twotone</title>
    <desc>Created with Sketch.</desc>
    <g id="Page-1" stroke="none" stroke-width="1" fill="none" fill-rule="evenodd">
        <g id="Календарь-Горизонтальный" transform="translate(-330.000000, -232.000000)" fill-rule="nonzero">
            <g id="День" transform="translate(270.000000, 70.000000)">
                <g id="Под-пост" transform="translate(0.000000, 39.000000)">
                    <g id="Group-2" transform="translate(59.000000, 55.000000)">
                        <g id="Group" transform="translate(0.000000, 66.666667)">
                            <g id="ant-design:clock-circle-twotone">
                                <g id="Icon" fill="#A2A2A2">
                                    <path d="M12,1.5 C6.2015625,1.5 1.5,6.2015625 1.5,12 C1.5,17.7984375 6.2015625,22.5 12,22.5 C17.7984375,22.5 22.5,17.7984375 22.5,12 C22.5,6.2015625 17.7984375,1.5 12,1.5 Z M12,20.71875 C7.1859375,20.71875 3.28125,16.8140625 3.28125,12 C3.28125,7.1859375 7.1859375,3.28125 12,3.28125 C16.8140625,3.28125 20.71875,7.1859375 20.71875,12 C20.71875,16.8140625 16.8140625,20.71875 12,20.71875 Z" id="Icon-Shape" fill-opacity="0.8"></path>
                                    <path d="M12,3.28125 C7.1859375,3.28125 3.28125,7.1859375 3.28125,12 C3.28125,16.8140625 7.1859375,20.71875 12,20.71875 C16.8140625,20.71875 20.71875,16.8140625 20.71875,12 C20.71875,7.1859375 16.8140625,3.28125 12,3.28125 Z M16.1367188,15.2273437 L15.4664062,16.1414062 C15.4369593,16.1816059 15.3927047,16.2084114 15.3434379,16.2158894 C15.2941711,16.2233674 15.2439555,16.2109011 15.2039062,16.18125 L11.3273437,13.3546875 C11.2783358,13.319494 11.2494903,13.262677 11.2499934,13.2023437 L11.2499934,6.75 C11.2499934,6.646875 11.334375,6.5625 11.4375,6.5625 L12.5648437,6.5625 C12.6679688,6.5625 12.7523437,6.646875 12.7523437,6.75 L12.7523437,12.5507812 L16.0945312,14.9671875 C16.1789063,15.0257813 16.1976562,15.1429688 16.1367188,15.2273437 Z" id="Icon-Shape" fill-opacity="0.1"></path>
                                    <path d="M16.0945312,14.9671875 L12.7523437,12.5507812 L12.7523437,6.75 C12.7523437,6.646875 12.6679688,6.5625 12.5648437,6.5625 L11.4375,6.5625 C11.334375,6.5625 11.25,6.646875 11.25,6.75 L11.25,13.2023437 C11.25,13.2632812 11.278125,13.3195312 11.3273438,13.3546875 L15.2039062,16.18125 C15.2882813,16.2421875 15.4054688,16.2257812 15.4664063,16.1414062 L16.1367188,15.2273437 C16.1976563,15.1429687 16.1789063,15.0257812 16.0945313,14.9671875 L16.0945312,14.9671875 Z" id="Icon-Path" fill-opacity="0.8"></path>
                                </g>
                                <rect id="ViewBox" x="0" y="0" width="24" height="24"></rect>
                            </g>
                        </g>
                    </g>
                </g>
            </g>
        </g>
    </g>
</svg>